<?xml version="1.0" standalone="no"?>
<!DOCTYPE svg PUBLIC "-//W3C//DTD SVG 20010904//EN"
 "http://www.w3.org/TR/2001/REC-SVG-20010904/DTD/svg10.dtd">
<svg version="1.0" xmlns="http://www.w3.org/2000/svg"
 width="202.000000pt" height="202.000000pt" viewBox="0 0 202.000000 202.000000"
 preserveAspectRatio="xMidYMid meet">
<metadata>
Created by potrace 1.11, written by Peter Selinger 2001-2013
</metadata>
<g transform="translate(0.000000,202.000000) scale(0.100000,-0.100000)"
fill="#000000" stroke="none">
<path d="M1064 1999 c-6 -8 -14 -31 -18 -51 -17 -93 -255 -241 -471 -293 -66
-16 -82 -18 -135 -19 -70 -2 -118 12 -137 40 -12 19 -12 27 0 57 8 19 25 44
38 57 20 18 20 21 4 12 -53 -29 -206 -221 -247 -311 -51 -112 -57 -133 -54
-171 6 -63 75 -109 179 -119 5 -1 -29 -38 -75 -84 -142 -143 -167 -219 -122
-374 31 -106 92 -233 152 -313 59 -78 89 -102 158 -126 62 -21 83 -23 204 -19
74 2 149 6 165 9 148 30 281 63 335 84 14 5 28 10 32 11 16 3 126 42 173 61
79 32 292 141 364 185 256 159 399 315 406 442 2 40 -9 119 -29 203 -17 75
-100 270 -115 270 -3 0 -7 -20 -7 -44 -4 -142 -244 -365 -574 -534 -281 -144
-609 -248 -845 -268 -38 -3 -76 -7 -83 -10 -8 -2 -6 5 5 21 10 13 21 25 24 25
3 0 19 11 35 25 73 64 282 191 419 255 186 86 213 101 244 136 69 75 84 171
41 255 l-18 36 31 18 c154 87 301 218 341 304 26 56 26 104 0 133 -24 25 -139
79 -204 95 -8 2 -58 7 -110 10 -74 4 -98 2 -106 -8z"/>
<path d="M1879 576 c-142 -156 -467 -333 -772 -421 -51 -15 -103 -29 -117 -31
-14 -3 -32 -7 -40 -9 -69 -20 -299 -27 -355 -12 -53 15 -17 -5 53 -30 85 -30
164 -49 252 -59 25 -3 56 -6 70 -8 22 -3 109 5 197 18 17 3 51 10 75 17 24 7
45 13 48 14 64 14 241 100 313 152 75 53 185 168 238 248 47 70 103 174 97
180 -2 2 -28 -25 -59 -59z"/>
</g>
</svg>
